<svg aria-hidden="true" style="position: absolute; width: 0; height: 0; overflow: hidden;" version="1.1"
     xmlns="http://www.w3.org/2000/svg" xmlns:xlink="http://www.w3.org/1999/xlink">
    <defs>
        <symbol id="icon-search" width="16px" height="16px" viewBox="0 0 16 16">
            <g id="Page-1" stroke="none" stroke-width="1">
                <g id="02.-Landing-Page-V2--" transform="translate(-950.000000, -32.000000)" fill=""
                   fill-rule="nonzero" stroke="" stroke-width="1">
                    <g id="Group-15">
                        <g id="Group-2">
                            <g id="Group-12" transform="translate(415.000000, 22.000000)">
                                <g id="Search" transform="translate(536.000000, 11.000000)">
                                    <path d="M13.785978,12.7527343 L10.4047049,9.37148254 C12.1726119,7.09333523 12.0128107,3.79326313 9.92174709,1.70235496 C8.82389604,0.604510881 7.3643598,0 5.81198534,0 C4.25946871,0 2.79993247,0.604510881 1.70236576,1.70221279 C0.604514718,2.7999147 0,4.25944167 0,5.81194845 C0,7.36445523 0.604514718,8.82412438 1.70222359,9.92182629 C2.80007464,11.0195282 4.25946871,11.6241812 5.81198534,11.6241812 C7.11811815,11.6241812 8.35743019,11.1946828 9.37196853,10.4052075 L12.7528152,13.7861749 C12.8952714,13.9287724 13.0823695,14 13.2694677,14 C13.4562815,14 13.6433797,13.9287724 13.7861202,13.7861749 C14.071317,13.5006956 14.071317,13.0380713 13.785978,12.7527343 Z M2.73538645,8.88838565 C1.91377531,8.06663756 1.46095796,6.9740538 1.46095796,5.81209062 C1.46095796,4.6498431 1.91377531,3.55740152 2.73567079,2.73551126 C3.55728193,1.91376316 4.64973044,1.46123303 5.81198534,1.46123303 C6.97395589,1.46123303 8.06668875,1.91376316 8.88858423,2.73551126 C10.5849788,4.4316107 10.5849788,7.1918597 8.88858423,8.88824348 C8.06683092,9.71013374 6.97395589,10.162806 5.81198534,10.162806 C4.64973044,10.162806 3.55728193,9.71013374 2.73538645,8.88838565 Z"
                                          id="Shape"></path>
                                </g>
                            </g>
                        </g>
                    </g>
                </g>
            </g>
        </symbol>
        <symbol id="corp-close-icon" xmlns="http://www.w3.org/2000/svg" viewBox="0 0 137.2 137.3">
            <path
                d="M165.3,56.5l-44.2,44.3,44,44a14.5,14.5,0,0,1,.2,20.3h0a14.4,14.4,0,0,1-20.5,0l-44-44-44.1,44a14.4,14.4,0,0,1-20.5,0h0a14.5,14.5,0,0,1,.2-20.3l44-44L36.2,56.5a14.5,14.5,0,0,1,.2-20.3h0a14.3,14.3,0,0,1,20.1,0h0l44.3,44.2L145,36.2a14.3,14.3,0,0,1,20.1,0h0A14.5,14.5,0,0,1,165.3,56.5Z"
                transform="translate(-32.1 -32.1)"/>
        </symbol>
        <symbol id="icon-join" viewBox="0 0 1024 1024">
            <!-- <title>join</title> -->
            <path class="path1"
                  d="M762.88 486.4h-568.32c-7.68 0-15.36 7.68-15.36 15.36s7.68 15.36 15.36 15.36h568.32l-158.72 145.92c-7.68 5.12-7.68 15.36 0 23.040 2.56 2.56 7.68 5.12 12.8 5.12 2.56 0 7.68-2.56 10.24-5.12l189.44-174.080c2.56-2.56 5.12-7.68 5.12-12.8s-2.56-7.68-5.12-12.8l-189.44-174.080c-7.68-5.12-15.36-5.12-23.040 0-5.12 7.68-5.12 15.36 0 23.040l158.72 151.040z"></path>
        </symbol>
        <symbol id="icon-next" viewBox="0 0 6 10" fill="none">
            <path d="M1 9L5 5L1 1" stroke="white" stroke-width="1.5" stroke-linecap="round" stroke-linejoin="round"/>
        </symbol>
        <symbol id="icon-next-disabled" viewBox="0 0 6 10" fill="none">
            <path d="M1 9L5 5L1 1" stroke="grey" stroke-width="1.5" stroke-linecap="round" stroke-linejoin="round"/>
        </symbol>
        <symbol id="icon-app-correct" width="11" height="9" viewBox="0 0 11 9" fill="none">
            <path fill-rule="evenodd" clip-rule="evenodd" d="M4 8.42L0 4.42L1.41 3.01L4 5.59L9.59 0L11 1.42L4 8.42Z" fill="#F7F7F7"/>
        </symbol>
        <symbol id="icon-sort-both" width="11" height="14" viewBox="0 0 11 14" fill="none">
            <g >
                <path d="M0.853592 4.64642L5.14644 0.353577C5.34175 0.158264 5.65828 0.158264 5.85359 0.353577L10.1464 4.64642C10.3418 4.84174 10.3418 5.15826 10.1464 5.35358L9.44307 6.05695C9.248 6.25201 8.93184 6.25226 8.7364 6.05743L5.49995 2.83002L2.2635 6.05743C2.06819 6.25226 1.75203 6.25201 1.55696 6.05695L0.853592 5.35358C0.658279 5.15826 0.658279 4.84174 0.853592 4.64642Z" fill="black" fill-opacity="0.65"/>
                <path d="M0.853592 9.35345L5.14644 13.6464C5.34175 13.8416 5.65828 13.8416 5.85359 13.6464L10.1464 9.35345C10.3418 9.15826 10.3418 8.84161 10.1464 8.64642L9.44307 7.94305C9.248 7.74799 8.93184 7.74774 8.7364 7.94257L5.49995 11.17L2.2635 7.94257C2.06819 7.74774 1.75203 7.74799 1.55696 7.94305L0.853592 8.64642C0.658279 8.84161 0.658279 9.15826 0.853592 9.35345Z" fill="black" fill-opacity="0.65"/>
            </g>
        </symbol>
        <symbol id="icon-sort" width="10" height="13" viewBox="0 0 10 13" fill="none">
            <path d="M4.64648 0.353516L0.353638 4.64636C0.158325 4.84167 0.158325 5.1582 0.353638 5.35352L1.05701 6.05688C1.25208 6.25195 1.56824 6.2522 1.76355 6.05737L4 3.82716V12.5C4 12.7761 4.22386 13 4.5 13H5.5C5.77614 13 6 12.7761 6 12.5V3.82716L8.23645 6.05737C8.43188 6.2522 8.74805 6.25195 8.94312 6.05688L9.64648 5.35352C9.8418 5.1582 9.8418 4.84167 9.64648 4.64636L5.35364 0.353516C5.15833 0.158203 4.8418 0.158203 4.64648 0.353516Z" fill="black" fill-opacity="0.9"/>
        </symbol>
        <symbol id="icon-union" width="14" height="14" viewBox="0 0 14 14" fill="none">
            <path fill-rule="evenodd" clip-rule="evenodd" d="M14 1.5H4.91465C4.70873 0.917404 4.15311 0.5 3.5 0.5C2.84689 0.5 2.29127 0.917404 2.08535 1.5H0V2.5H2.08535C2.29127 3.0826 2.84689 3.5 3.5 3.5C4.15311 3.5 4.70873 3.0826 4.91465 2.5H14V1.5ZM9.08535 6.5H0V7.5H9.08535C9.29127 8.0826 9.84689 8.5 10.5 8.5C11.1531 8.5 11.7087 8.0826 11.9146 7.5H14V6.5H11.9146C11.7087 5.9174 11.1531 5.5 10.5 5.5C9.84689 5.5 9.29127 5.9174 9.08535 6.5ZM4.91465 11.5H14V12.5H4.91465C4.70873 13.0826 4.15311 13.5 3.5 13.5C2.84689 13.5 2.29127 13.0826 2.08535 12.5H0V11.5H2.08535C2.29127 10.9174 2.84689 10.5 3.5 10.5C4.15311 10.5 4.70873 10.9174 4.91465 11.5Z" fill="#7B8395"/>
        </symbol>

        <symbol id="icon-edit" width="19" height="19" viewBox="0 0 19 19" fill="none" xmlns="http://www.w3.org/2000/svg">
            <path d="M6 18.25H1.5C1.30109 18.25 1.11032 18.171 0.96967 18.0303C0.829018 17.8897 0.75 17.6989 0.75 17.5V13.3107C0.75 13.2122 0.769399 13.1147 0.80709 13.0237C0.844781 12.9327 0.900026 12.85 0.96967 12.7803L12.2197 1.53034C12.3603 1.38969 12.5511 1.31067 12.75 1.31067C12.9489 1.31067 13.1397 1.38969 13.2803 1.53034L17.4697 5.71968C17.6103 5.86033 17.6893 6.0511 17.6893 6.25001C17.6893 6.44892 17.6103 6.63969 17.4697 6.78034L6 18.25Z" stroke="#333333" stroke-width="1.5" stroke-linecap="round" stroke-linejoin="round"/>
        </symbol>

        <symbol id="icon-trash" width="18" height="20" viewBox="0 0 18 20" fill="none" xmlns="http://www.w3.org/2000/svg">
            <path d="M1.28571 4.85716H16.7143M5.57142 4.85716V3.14287C5.57142 2.68822 5.75203 2.25218 6.07352 1.93069C6.39501 1.6092 6.83105 1.42859 7.28571 1.42859H10.7143C11.1689 1.42859 11.605 1.6092 11.9265 1.93069C12.248 2.25218 12.4286 2.68822 12.4286 3.14287V4.85716M15 4.85716V16.8572C15 17.3118 14.8194 17.7479 14.4979 18.0693C14.1764 18.3908 13.7404 18.5714 13.2857 18.5714H4.71428C4.25962 18.5714 3.82358 18.3908 3.50209 18.0693C3.1806 17.7479 2.99999 17.3118 2.99999 16.8572V4.85716H15Z" stroke="#121212" stroke-width="1.5" stroke-linecap="round" stroke-linejoin="round"/>
        </symbol>

        <symbol id="icon-union" width="14" height="14" viewBox="0 0 14 14" fill="none" xmlns="http://www.w3.org/2000/svg">
        <path fill-rule="evenodd" clip-rule="evenodd" d="M14 1.5H4.91465C4.70873 0.917404 4.15311 0.5 3.5 0.5C2.84689 0.5 2.29127 0.917404 2.08535 1.5H0V2.5H2.08535C2.29127 3.0826 2.84689 3.5 3.5 3.5C4.15311 3.5 4.70873 3.0826 4.91465 2.5H14V1.5ZM9.08535 6.5H0V7.5H9.08535C9.29127 8.0826 9.84689 8.5 10.5 8.5C11.1531 8.5 11.7087 8.0826 11.9146 7.5H14V6.5H11.9146C11.7087 5.9174 11.1531 5.5 10.5 5.5C9.84689 5.5 9.29127 5.9174 9.08535 6.5ZM4.91465 11.5H14V12.5H4.91465C4.70873 13.0826 4.15311 13.5 3.5 13.5C2.84689 13.5 2.29127 13.0826 2.08535 12.5H0V11.5H2.08535C2.29127 10.9174 2.84689 10.5 3.5 10.5C4.15311 10.5 4.70873 10.9174 4.91465 11.5Z" fill="#7B8395"/>
        </symbol>

        <symbol id="icon-plus" width="14" height="14" viewBox="0 0 14 14" fill="white" xmlns="http://www.w3.org/2000/svg">
        <path fill-rule="evenodd" clip-rule="evenodd" d="M14 8H8V14H6V8H0V6H6V0H8V6H14V8Z" />
        </symbol>

        <symbol id="icon-eye" width="22" height="15" viewBox="0 0 22 15" xmlns="http://www.w3.org/2000/svg">
        <path fill-rule="evenodd" clip-rule="evenodd" d="M11 0C6 0 1.73 3.11 0 7.5C1.73 11.89 6 15 11 15C16 15 20.27 11.89 22 7.5C20.27 3.11 16 0 11 0ZM11 12.5C8.24 12.5 6 10.26 6 7.5C6 4.74 8.24 2.5 11 2.5C13.76 2.5 16 4.74 16 7.5C16 10.26 13.76 12.5 11 12.5ZM11 4.5C9.34 4.5 8 5.84 8 7.5C8 9.16 9.34 10.5 11 10.5C12.66 10.5 14 9.16 14 7.5C14 5.84 12.66 4.5 11 4.5Z"/>
        </symbol>

        <symbol id="icon-wrong" width="28" height="28" viewBox="0 0 28 28" fill="none" xmlns="http://www.w3.org/2000/svg">
            <rect width="28" height="28" rx="14" fill="black" fill-opacity="0.35"/>
            <path fill-rule="evenodd" clip-rule="evenodd" d="M9.94708 8.88633C9.65418 8.59343 9.17931 8.59343 8.88642 8.88633C8.59352 9.17922 8.59352 9.65409 8.88642 9.94699L12.9394 14L8.88642 18.053C8.59352 18.3459 8.59352 18.8208 8.88642 19.1137C9.17931 19.4065 9.65418 19.4065 9.94708 19.1137L14.0001 15.0607L18.0531 19.1137C18.346 19.4065 18.8209 19.4065 19.1137 19.1137C19.4066 18.8208 19.4066 18.3459 19.1137 18.053L15.0607 14L19.1137 9.94699C19.4066 9.65409 19.4066 9.17922 19.1137 8.88633C18.8209 8.59343 18.346 8.59343 18.0531 8.88633L14.0001 12.9393L9.94708 8.88633Z" fill="white" fill-opacity="0.9"/>
        </symbol>

        <symbol id="icon-calendar" width="22" height="22" viewBox="0 0 22 22" fill="none" xmlns="http://www.w3.org/2000/svg">
            <path d="M19.3077 2.69231H17.2307V1.53847C17.2307 1.35486 17.1578 1.17877 17.028 1.04893C16.8981 0.9191 16.7221 0.846161 16.5384 0.846161C16.3548 0.846161 16.1787 0.9191 16.0489 1.04893C15.9191 1.17877 15.8461 1.35486 15.8461 1.53847V2.69231H6.15382V1.53847C6.15382 1.35486 6.08088 1.17877 5.95105 1.04893C5.82122 0.9191 5.64513 0.846161 5.46152 0.846161C5.2779 0.846161 5.10181 0.9191 4.97198 1.04893C4.84215 1.17877 4.76921 1.35486 4.76921 1.53847V2.69231H2.69228C2.20265 2.69231 1.73308 2.88682 1.38686 3.23304C1.04064 3.57926 0.84613 4.04884 0.84613 4.53847V19.3077C0.84613 19.7973 1.04064 20.2669 1.38686 20.6131C1.73308 20.9593 2.20265 21.1539 2.69228 21.1539H19.3077C19.7973 21.1539 20.2669 20.9593 20.6131 20.6131C20.9593 20.2669 21.1538 19.7973 21.1538 19.3077V4.53847C21.1538 4.04884 20.9593 3.57926 20.6131 3.23304C20.2669 2.88682 19.7973 2.69231 19.3077 2.69231ZM2.69228 4.07693H4.76921V4.76924C4.76921 4.95285 4.84215 5.12894 4.97198 5.25877C5.10181 5.38861 5.2779 5.46155 5.46152 5.46155C5.64513 5.46155 5.82122 5.38861 5.95105 5.25877C6.08088 5.12894 6.15382 4.95285 6.15382 4.76924V4.07693H15.8461V4.76924C15.8461 4.95285 15.9191 5.12894 16.0489 5.25877C16.1787 5.38861 16.3548 5.46155 16.5384 5.46155C16.7221 5.46155 16.8981 5.38861 17.028 5.25877C17.1578 5.12894 17.2307 4.95285 17.2307 4.76924V4.07693H19.3077C19.4301 4.07693 19.5475 4.12556 19.634 4.21211C19.7206 4.29867 19.7692 4.41606 19.7692 4.53847V6.61539H2.23075V4.53847C2.23075 4.41606 2.27937 4.29867 2.36593 4.21211C2.45248 4.12556 2.56988 4.07693 2.69228 4.07693ZM19.3077 19.7692H2.69228C2.56988 19.7692 2.45248 19.7206 2.36593 19.6341C2.27937 19.5475 2.23075 19.4301 2.23075 19.3077V8.00001H19.7692V19.3077C19.7692 19.4301 19.7206 19.5475 19.634 19.6341C19.5475 19.7206 19.4301 19.7692 19.3077 19.7692Z" fill="black" fill-opacity="0.65"/>
        </symbol>

        <symbol id='icon-clock' width="24" height="24" viewBox="0 0 24 24" fill="none" xmlns="http://www.w3.org/2000/svg">
            <rect width="24" height="24" fill="white"/>
            <path d="M17.627 12C17.627 12.1989 17.548 12.3897 17.4073 12.5303C17.2667 12.671 17.0759 12.75 16.877 12.75H12C11.8011 12.75 11.6103 12.671 11.4697 12.5303C11.329 12.3897 11.25 12.1989 11.25 12V5.44C11.25 5.24109 11.329 5.05032 11.4697 4.90967C11.6103 4.76902 11.8011 4.69 12 4.69C12.1989 4.69 12.3897 4.76902 12.5303 4.90967C12.671 5.05032 12.75 5.24109 12.75 5.44V11.25H16.877C17.0759 11.25 17.2667 11.329 17.4073 11.4697C17.548 11.6103 17.627 11.8011 17.627 12V12ZM22 12C22 13.9778 21.4135 15.9112 20.3147 17.5557C19.2159 19.2002 17.6541 20.4819 15.8268 21.2388C13.9996 21.9957 11.9889 22.1937 10.0491 21.8079C8.10929 21.422 6.32746 20.4696 4.92893 19.0711C3.53041 17.6725 2.578 15.8907 2.19215 13.9509C1.8063 12.0111 2.00433 10.0004 2.76121 8.17317C3.51808 6.3459 4.79981 4.78412 6.4443 3.6853C8.08879 2.58649 10.0222 2 12 2C14.6513 2.00291 17.1931 3.05742 19.0679 4.93215C20.9426 6.80688 21.9971 9.34873 22 12V12ZM20.5 12C20.5 10.3189 20.0015 8.67547 19.0675 7.27765C18.1335 5.87984 16.806 4.79037 15.2528 4.14702C13.6996 3.50368 11.9906 3.33535 10.3417 3.66333C8.6929 3.9913 7.17834 4.80085 5.98959 5.98959C4.80085 7.17834 3.9913 8.69289 3.66333 10.3417C3.33535 11.9906 3.50368 13.6996 4.14703 15.2528C4.79037 16.806 5.87984 18.1335 7.27765 19.0675C8.67547 20.0015 10.3189 20.5 12 20.5C14.2535 20.4974 16.414 19.601 18.0075 18.0075C19.601 16.414 20.4974 14.2535 20.5 12V12Z" fill="black" fill-opacity="0.65"/>
        </symbol>

        <symbol id="icon-filter"  width="24" height="24" viewBox="0 0 24 24" fill="none" xmlns="http://www.w3.org/2000/svg">
             <rect width="24" height="24" fill="white"/>
            <path d="M5.66905 5H18.6691C18.8131 5.05051 18.9436 5.13331 19.0507 5.24206C19.1578 5.35082 19.2385 5.48264 19.2868 5.62742C19.335 5.77221 19.3495 5.92612 19.3291 6.07737C19.3087 6.22861 19.254 6.37318 19.1691 6.5L14.1691 12V19L10.1691 16V12L5.16905 6.5C5.08414 6.37318 5.02939 6.22861 5.00898 6.07737C4.98857 5.92612 5.00305 5.77221 5.05132 5.62742C5.09958 5.48264 5.18034 5.35082 5.28741 5.24206C5.39449 5.13331 5.52503 5.05051 5.66905 5Z" stroke="black" stroke-opacity="0.65" stroke-width="1.5" stroke-linecap="round" stroke-linejoin="round"/>
         </symbol>
        
          <symbol id="icon-fail-toast" width="20" height="20" viewBox="0 0 20 20" fill="none" xmlns="http://www.w3.org/2000/svg">
            <path d="M10 0C4.48 0 0 4.48 0 10C0 15.52 4.48 20 10 20C15.52 20 20 15.52 20 10C20 4.48 15.52 0 10 0ZM11 14C11 14.5523 10.5523 15 10 15C9.44771 15 9 14.5523 9 14C9 13.4477 9.44771 13 10 13C10.5523 13 11 13.4477 11 14ZM11 10C11 10.5523 10.5523 11 10 11C9.44771 11 9 10.5523 9 10V6C9 5.44772 9.44771 5 10 5C10.5523 5 11 5.44772 11 6V10Z" fill="#DA3832"/>
        </symbol>

          <symbol id="icon-success-toast" width="20" height="20" viewBox="0 0 20 20" fill="none" xmlns="http://www.w3.org/2000/svg">
                <path d="M10 0C4.48 0 0 4.48 0 10C0 15.52 4.48 20 10 20C15.52 20 20 15.52 20 10C20 4.48 15.52 0 10 0ZM8.70711 14.2929C8.31658 14.6834 7.68342 14.6834 7.29289 14.2929L3.70549 10.7055C3.31586 10.3159 3.31586 9.68414 3.70549 9.29451C4.09474 8.90526 4.7257 8.90482 5.11549 9.29352L8 12.17L14.8804 5.28961C15.2719 4.89811 15.9074 4.89963 16.2975 5.29251C16.6857 5.68343 16.6849 6.31506 16.2954 6.70461L8.70711 14.2929Z" fill="#3AB876"/>
        </symbol>

          <symbol id="icon-info-toast" width="20" height="20" viewBox="0 0 20 20" fill="none" xmlns="http://www.w3.org/2000/svg">
                <path d="M10 0C4.48 0 0 4.48 0 10C0 15.52 4.48 20 10 20C15.52 20 20 15.52 20 10C20 4.48 15.52 0 10 0ZM11 14C11 14.5523 10.5523 15 10 15C9.44771 15 9 14.5523 9 14V10C9 9.44772 9.44771 9 10 9C10.5523 9 11 9.44772 11 10V14ZM11 6C11 6.55228 10.5523 7 10 7C9.44771 7 9 6.55228 9 6C9 5.44772 9.44771 5 10 5C10.5523 5 11 5.44772 11 6Z" fill="#699BF7"/>
        </symbol>

          <symbol id="icon-warn-toast" width="20" height="20" viewBox="0 0 20 20" fill="none" xmlns="http://www.w3.org/2000/svg">
                <path d="M0.73804 14.9979C-0.0338891 16.3313 0.92823 18 2.46889 18H17.5311C19.0718 18 20.0339 16.3313 19.262 14.9979L11.7309 1.98965C10.9605 0.659081 9.03948 0.659085 8.26915 1.98965L0.73804 14.9979ZM11 15C11 15.5523 10.5523 16 10 16C9.44771 16 9 15.5523 9 15C9 14.4477 9.44771 14 10 14C10.5523 14 11 14.4477 11 15ZM11 11C11 11.5523 10.5523 12 10 12C9.44771 12 9 11.5523 9 11V7C9 6.44772 9.44771 6 10 6C10.5523 6 11 6.44772 11 7V11Z" fill="#F6A609"/>
        </symbol>

        <symbol id="icon-close-toast" width="12" height="12" viewBox="0 0 12 12" fill="none" xmlns="http://www.w3.org/2000/svg">
                <path d="M11.0792 1.7625C11.4036 1.43803 11.4036 0.911967 11.0792 0.5875C10.7547 0.263033 10.2286 0.263033 9.90417 0.5875L5.83333 4.65833L1.7625 0.5875C1.43803 0.263033 0.911967 0.263033 0.5875 0.5875C0.263033 0.911967 0.263033 1.43803 0.5875 1.7625L4.65833 5.83333L0.5875 9.90417C0.263033 10.2286 0.263033 10.7547 0.5875 11.0792C0.911967 11.4036 1.43803 11.4036 1.7625 11.0792L5.83333 7.00833L9.90417 11.0792C10.2286 11.4036 10.7547 11.4036 11.0792 11.0792C11.4036 10.7547 11.4036 10.2286 11.0792 9.90417L7.00833 5.83333L11.0792 1.7625Z" fill="black" fill-opacity="0.65"/>
        </symbol>

        <symbol id="icon-more" width="4" height="18" viewBox="0 0 4 18" fill="none" xmlns="http://www.w3.org/2000/svg">
            <circle cx="2" cy="2.33337" r="2" fill="black" fill-opacity="0.65"/>
            <circle cx="2" cy="9" r="2" fill="black" fill-opacity="0.65"/>
            <circle cx="2" cy="15.6666" r="2" fill="black" fill-opacity="0.65"/>
        </symbol>  
    </defs>
</svg>
